<svg xmlns="http://www.w3.org/2000/svg" version="1.0" width="512.000000" height="512.000000" preserveAspectRatio="xMidYMid meet"><rect id="backgroundrect" width="100%" height="100%" x="0" y="0" fill="none" stroke="none"/>


<g class="currentLayer" style=""><title>Layer 1</title><g transform="translate(0,512) scale(0.10000000149011612,-0.10000000149011612) " fill="#8675ff" stroke="none" id="svg_1" class="selected" fill-opacity="1">
<path d="M2492 4944 c-18 -10 -45 -33 -60 -52 -30 -39 -32 -63 -17 -227 13 -152 -28 -316 -127 -505 -76 -146 -68 -141 -130 -85 -78 70 -257 186 -394 254 -99 50 -130 61 -170 61 -95 0 -145 -54 -163 -175 -29 -199 -122 -348 -383 -621 -79 -82 -172 -187 -206 -234 -176 -235 -291 -500 -338 -780 -25 -147 -30 -429 -10 -587 86 -702 519 -1312 1151 -1618 426 -207 889 -265 1350 -168 523 109 991 427 1294 877 234 347 351 736 351 1159 -1 455 -138 872 -407 1237 -110 149 -208 362 -243 525 -22 101 -18 247 9 352 30 113 22 151 -39 207 -62 56 -116 53 -257 -14 -128 -61 -233 -133 -338 -231 l-80 -77 -43 78 c-111 206 -320 428 -549 584 -84 57 -144 69 -201 40z m383 -644 c106 -138 160 -278 173 -451 7 -86 13 -112 31 -138 30 -42 70 -61 129 -61 76 0 107 27 172 150 73 140 110 192 194 275 l71 70 7 -40 c4 -22 14 -85 23 -140 36 -227 132 -437 315 -695 161 -227 251 -437 307 -715 14 -71 18 -138 18 -315 -1 -206 -3 -236 -28 -351 -156 -729 -726 -1271 -1462 -1390 -104 -17 -426 -17 -530 0 -710 114 -1275 632 -1444 1324 -43 174 -54 291 -48 480 10 314 76 533 234 777 74 113 113 160 268 320 189 196 299 347 371 510 21 48 39 75 48 74 26 -3 185 -114 253 -177 35 -33 73 -77 83 -98 52 -102 170 -134 253 -68 33 25 151 182 206 274 86 143 165 332 191 460 20 97 17 95 71 37 26 -29 69 -79 94 -112z" id="svg_2" fill="#8675ff" fill-opacity="1"/>
<path d="M2330 3495 c-326 -56 -601 -208 -830 -461 -166 -183 -290 -439 -336 -694 -24 -127 -23 -363 0 -485 111 -585 532 -1018 1114 -1147 130 -29 413 -32 545 -5 266 54 508 177 700 357 230 216 372 477 433 795 24 120 24 357 1 482 -109 599 -577 1062 -1172 1158 -109 18 -351 18 -455 0z m50 -325 c0 -20 -61 -235 -68 -238 -4 -2 -86 -47 -182 -101 l-175 -97 -133 -155 c-130 -152 -133 -154 -197 -176 -36 -12 -79 -25 -96 -28 -29 -7 -30 -6 -23 22 15 64 86 218 137 296 153 235 408 413 682 476 54 12 55 12 55 1z m422 -5 c90 -21 162 -47 247 -89 80 -41 181 -105 181 -115 -1 -3 -61 -58 -135 -121 -184 -156 -180 -144 -131 -384 l37 -183 -76 -168 -76 -168 -34 -211 c-20 -118 -33 -224 -29 -241 3 -16 57 -107 120 -201 63 -94 114 -173 114 -176 0 -10 -95 -47 -171 -67 -132 -35 -127 -34 -134 -3 -3 15 -54 106 -113 202 l-107 175 -185 133 c-211 152 -256 177 -306 168 -18 -4 -115 -40 -216 -81 -100 -41 -183 -74 -184 -72 -11 11 -66 134 -83 186 -28 85 -53 213 -49 246 3 26 12 30 190 84 103 32 196 64 207 72 12 8 80 84 152 169 l130 155 207 116 c146 81 213 125 228 146 11 17 45 124 75 237 32 124 59 206 66 206 6 0 40 -7 75 -15z m738 -580 c195 -392 143 -846 -135 -1185 -29 -36 -67 -78 -83 -93 l-29 -28 -91 138 -91 138 23 145 c23 139 27 152 106 324 45 98 84 193 87 210 2 17 -9 96 -26 175 -17 79 -31 148 -31 152 0 4 42 44 92 88 l93 81 17 -22 c10 -13 40 -68 68 -123z m-1407 -1305 c118 -84 129 -95 176 -172 27 -46 46 -84 42 -86 -15 -5 -185 50 -256 83 -76 36 -195 113 -253 163 l-33 29 83 35 c46 20 90 36 99 37 9 1 73 -39 142 -89z" id="svg_3" fill="#8675ff" fill-opacity="1"/>
</g></g></svg>